<mxfile host="app.diagrams.net" modified="2023-11-09T17:46:22.177Z" agent="Mozilla/5.0 (Windows NT 10.0; Win64; x64; rv:109.0) Gecko/20100101 Firefox/119.0" etag="PScTD14MdsMrIqo7_zO-" version="22.1.0" type="device">
  <diagram name="Page-1" id="rNeAm9WnJFmLv7kzPl-V">
    <mxGraphModel dx="1728" dy="1937" grid="1" gridSize="10" guides="1" tooltips="1" connect="1" arrows="1" fold="1" page="1" pageScale="1" pageWidth="850" pageHeight="1100" math="0" shadow="0">
      <root>
        <mxCell id="0" />
        <mxCell id="1" parent="0" />
        <mxCell id="JVJf6kWSoOx6hXw5DYbl-1" value="&lt;div&gt;MS SQL&lt;/div&gt;&lt;div&gt;DB 2019&lt;br&gt;&lt;/div&gt;( Cluster)" style="shape=cylinder3;whiteSpace=wrap;html=1;boundedLbl=1;backgroundOutline=1;size=15;fillColor=#bac8d3;strokeColor=#23445d;" vertex="1" parent="1">
          <mxGeometry x="740" y="50" width="80" height="80" as="geometry" />
        </mxCell>
        <mxCell id="JVJf6kWSoOx6hXw5DYbl-2" value="&lt;div&gt;App: Observer&lt;/div&gt;&lt;div&gt;(WorkerService)&lt;/div&gt;&lt;div&gt;.NET 6&lt;/div&gt;&lt;div&gt;INSTANCE 1&lt;br&gt;&lt;/div&gt;" style="shape=process;whiteSpace=wrap;html=1;backgroundOutline=1;fillColor=#dae8fc;strokeColor=#6c8ebf;" vertex="1" parent="1">
          <mxGeometry x="290" y="100" width="120" height="60" as="geometry" />
        </mxCell>
        <mxCell id="JVJf6kWSoOx6hXw5DYbl-3" value="&lt;div&gt;RabbitMQ&lt;/div&gt;&lt;div&gt;Server 3.12&lt;/div&gt;" style="shape=internalStorage;whiteSpace=wrap;html=1;backgroundOutline=1;fillColor=#b0e3e6;strokeColor=#0e8088;" vertex="1" parent="1">
          <mxGeometry x="180" y="320" width="120" height="80" as="geometry" />
        </mxCell>
        <mxCell id="JVJf6kWSoOx6hXw5DYbl-4" value="" style="endArrow=classic;html=1;rounded=0;entryX=0.5;entryY=0;entryDx=0;entryDy=0;exitX=0.25;exitY=1;exitDx=0;exitDy=0;endSize=16;" edge="1" parent="1" source="JVJf6kWSoOx6hXw5DYbl-2" target="JVJf6kWSoOx6hXw5DYbl-3">
          <mxGeometry width="50" height="50" relative="1" as="geometry">
            <mxPoint x="390" y="280" as="sourcePoint" />
            <mxPoint x="440" y="320" as="targetPoint" />
          </mxGeometry>
        </mxCell>
        <mxCell id="JVJf6kWSoOx6hXw5DYbl-5" value="Send message once&lt;br&gt;new file available" style="edgeLabel;html=1;align=center;verticalAlign=middle;resizable=0;points=[];" vertex="1" connectable="0" parent="JVJf6kWSoOx6hXw5DYbl-4">
          <mxGeometry x="-0.0267" y="1" relative="1" as="geometry">
            <mxPoint x="-1" as="offset" />
          </mxGeometry>
        </mxCell>
        <mxCell id="JVJf6kWSoOx6hXw5DYbl-6" value="&lt;div&gt;App: Broker&lt;/div&gt;&lt;div&gt;(WorkerService)&lt;/div&gt;&lt;div&gt;.NET 6&lt;br&gt;&lt;/div&gt;" style="shape=process;whiteSpace=wrap;html=1;backgroundOutline=1;fillColor=#f8cecc;strokeColor=#b85450;" vertex="1" parent="1">
          <mxGeometry x="180" y="780" width="120" height="60" as="geometry" />
        </mxCell>
        <mxCell id="JVJf6kWSoOx6hXw5DYbl-10" value="" style="endArrow=classic;html=1;rounded=0;exitX=0.5;exitY=1;exitDx=0;exitDy=0;entryX=0.5;entryY=0;entryDx=0;entryDy=0;endSize=16;" edge="1" parent="1" source="JVJf6kWSoOx6hXw5DYbl-3" target="JVJf6kWSoOx6hXw5DYbl-6">
          <mxGeometry width="50" height="50" relative="1" as="geometry">
            <mxPoint x="360" y="410" as="sourcePoint" />
            <mxPoint x="410" y="360" as="targetPoint" />
          </mxGeometry>
        </mxCell>
        <mxCell id="JVJf6kWSoOx6hXw5DYbl-18" value="Read message from &lt;br&gt;RabbitMQ" style="edgeLabel;html=1;align=center;verticalAlign=middle;resizable=0;points=[];" vertex="1" connectable="0" parent="JVJf6kWSoOx6hXw5DYbl-10">
          <mxGeometry x="0.2427" y="-2" relative="1" as="geometry">
            <mxPoint x="12" y="-56" as="offset" />
          </mxGeometry>
        </mxCell>
        <mxCell id="JVJf6kWSoOx6hXw5DYbl-12" value="" style="endArrow=classic;html=1;rounded=0;entryX=0;entryY=0;entryDx=0;entryDy=52.5;entryPerimeter=0;exitX=1;exitY=0.75;exitDx=0;exitDy=0;endSize=16;" edge="1" parent="1" source="JVJf6kWSoOx6hXw5DYbl-51" target="JVJf6kWSoOx6hXw5DYbl-1">
          <mxGeometry width="50" height="50" relative="1" as="geometry">
            <mxPoint x="440" y="250" as="sourcePoint" />
            <mxPoint x="500" y="200" as="targetPoint" />
          </mxGeometry>
        </mxCell>
        <mxCell id="JVJf6kWSoOx6hXw5DYbl-13" value="&lt;div&gt;Write notes about&lt;/div&gt;&lt;div&gt;tracked files&lt;/div&gt;" style="edgeLabel;html=1;align=center;verticalAlign=middle;resizable=0;points=[];" vertex="1" connectable="0" parent="JVJf6kWSoOx6hXw5DYbl-12">
          <mxGeometry x="-0.1623" y="-4" relative="1" as="geometry">
            <mxPoint x="-17" y="21" as="offset" />
          </mxGeometry>
        </mxCell>
        <mxCell id="JVJf6kWSoOx6hXw5DYbl-15" value="" style="endArrow=classic;html=1;rounded=0;entryX=1.014;entryY=0.398;entryDx=0;entryDy=0;exitX=-0.004;exitY=0.423;exitDx=0;exitDy=0;exitPerimeter=0;endSize=16;entryPerimeter=0;" edge="1" parent="1" source="JVJf6kWSoOx6hXw5DYbl-1" target="JVJf6kWSoOx6hXw5DYbl-51">
          <mxGeometry width="50" height="50" relative="1" as="geometry">
            <mxPoint x="590" y="350" as="sourcePoint" />
            <mxPoint x="660" y="290" as="targetPoint" />
          </mxGeometry>
        </mxCell>
        <mxCell id="JVJf6kWSoOx6hXw5DYbl-17" value="&lt;div align=&quot;left&quot;&gt;1. Read Config&lt;/div&gt;&lt;div align=&quot;left&quot;&gt;2. Check File status&lt;br&gt;&lt;/div&gt;" style="edgeLabel;html=1;align=center;verticalAlign=middle;resizable=0;points=[];" vertex="1" connectable="0" parent="JVJf6kWSoOx6hXw5DYbl-15">
          <mxGeometry x="0.08" y="2" relative="1" as="geometry">
            <mxPoint x="26" y="-24" as="offset" />
          </mxGeometry>
        </mxCell>
        <mxCell id="JVJf6kWSoOx6hXw5DYbl-19" value="&lt;div&gt;App: Executor&lt;/div&gt;&lt;div&gt;&lt;div&gt;(WorkerService)&lt;/div&gt;.NET 6&lt;/div&gt;&lt;div&gt;INSTANCE 1&lt;br&gt;&lt;/div&gt;" style="shape=process;whiteSpace=wrap;html=1;backgroundOutline=1;fillColor=#fff2cc;strokeColor=#d6b656;" vertex="1" parent="1">
          <mxGeometry x="610" y="780" width="120" height="60" as="geometry" />
        </mxCell>
        <mxCell id="JVJf6kWSoOx6hXw5DYbl-20" value="&lt;div&gt;App: Executor&lt;/div&gt;&lt;div&gt;&lt;div&gt;(WorkerService)&lt;/div&gt;.NET 6&lt;/div&gt;&lt;div&gt;INSTANCE 2&lt;br&gt;&lt;/div&gt;" style="shape=process;whiteSpace=wrap;html=1;backgroundOutline=1;fillColor=#fff2cc;strokeColor=#d6b656;" vertex="1" parent="1">
          <mxGeometry x="485" y="710" width="120" height="60" as="geometry" />
        </mxCell>
        <mxCell id="JVJf6kWSoOx6hXw5DYbl-21" value="&lt;div&gt;App: Executor&lt;/div&gt;&lt;div&gt;&lt;div&gt;(WorkerService)&lt;/div&gt;.NET 6&lt;/div&gt;&lt;div&gt;INSTANCE &quot;N&quot;&lt;br&gt;&lt;/div&gt;" style="shape=process;whiteSpace=wrap;html=1;backgroundOutline=1;fillColor=#fff2cc;strokeColor=#d6b656;" vertex="1" parent="1">
          <mxGeometry x="365" y="630" width="120" height="60" as="geometry" />
        </mxCell>
        <mxCell id="JVJf6kWSoOx6hXw5DYbl-22" value="" style="endArrow=classic;html=1;rounded=0;exitX=1;exitY=0.5;exitDx=0;exitDy=0;entryX=0;entryY=0.5;entryDx=0;entryDy=0;endSize=14;" edge="1" parent="1" source="JVJf6kWSoOx6hXw5DYbl-6" target="JVJf6kWSoOx6hXw5DYbl-19">
          <mxGeometry width="50" height="50" relative="1" as="geometry">
            <mxPoint x="200" y="530" as="sourcePoint" />
            <mxPoint x="250" y="480" as="targetPoint" />
          </mxGeometry>
        </mxCell>
        <mxCell id="JVJf6kWSoOx6hXw5DYbl-23" value="" style="endArrow=classic;html=1;rounded=0;exitX=1;exitY=0.5;exitDx=0;exitDy=0;entryX=0;entryY=0.5;entryDx=0;entryDy=0;endSize=16;" edge="1" parent="1" source="JVJf6kWSoOx6hXw5DYbl-6" target="JVJf6kWSoOx6hXw5DYbl-20">
          <mxGeometry width="50" height="50" relative="1" as="geometry">
            <mxPoint x="580" y="560" as="sourcePoint" />
            <mxPoint x="630" y="510" as="targetPoint" />
          </mxGeometry>
        </mxCell>
        <mxCell id="JVJf6kWSoOx6hXw5DYbl-24" value="" style="endArrow=classic;html=1;rounded=0;entryX=0.5;entryY=1;entryDx=0;entryDy=0;exitX=1;exitY=0.5;exitDx=0;exitDy=0;endSize=16;" edge="1" parent="1" source="JVJf6kWSoOx6hXw5DYbl-6" target="JVJf6kWSoOx6hXw5DYbl-21">
          <mxGeometry width="50" height="50" relative="1" as="geometry">
            <mxPoint x="430" y="550" as="sourcePoint" />
            <mxPoint x="600" y="510" as="targetPoint" />
          </mxGeometry>
        </mxCell>
        <mxCell id="JVJf6kWSoOx6hXw5DYbl-25" value="" style="endArrow=classic;html=1;rounded=0;exitX=0.5;exitY=0;exitDx=0;exitDy=0;entryX=0.5;entryY=1;entryDx=0;entryDy=0;entryPerimeter=0;endSize=14;" edge="1" parent="1" source="JVJf6kWSoOx6hXw5DYbl-21" target="JVJf6kWSoOx6hXw5DYbl-1">
          <mxGeometry width="50" height="50" relative="1" as="geometry">
            <mxPoint x="600" y="600" as="sourcePoint" />
            <mxPoint x="640" y="400" as="targetPoint" />
          </mxGeometry>
        </mxCell>
        <mxCell id="JVJf6kWSoOx6hXw5DYbl-28" value="&lt;div align=&quot;left&quot;&gt;1. Write Info&lt;/div&gt;&lt;div&gt;2. Manage File Status&lt;br&gt;&lt;/div&gt;" style="edgeLabel;html=1;align=center;verticalAlign=middle;resizable=0;points=[];" vertex="1" connectable="0" parent="JVJf6kWSoOx6hXw5DYbl-25">
          <mxGeometry x="-0.1097" y="-1" relative="1" as="geometry">
            <mxPoint x="66" y="-128" as="offset" />
          </mxGeometry>
        </mxCell>
        <mxCell id="JVJf6kWSoOx6hXw5DYbl-26" value="" style="endArrow=classic;html=1;rounded=0;exitX=0.5;exitY=0;exitDx=0;exitDy=0;entryX=0.5;entryY=1;entryDx=0;entryDy=0;entryPerimeter=0;endSize=14;" edge="1" parent="1" source="JVJf6kWSoOx6hXw5DYbl-20" target="JVJf6kWSoOx6hXw5DYbl-1">
          <mxGeometry width="50" height="50" relative="1" as="geometry">
            <mxPoint x="717" y="481" as="sourcePoint" />
            <mxPoint x="645" y="409" as="targetPoint" />
          </mxGeometry>
        </mxCell>
        <mxCell id="JVJf6kWSoOx6hXw5DYbl-27" value="" style="endArrow=classic;html=1;rounded=0;exitX=0.5;exitY=0;exitDx=0;exitDy=0;entryX=0.5;entryY=1;entryDx=0;entryDy=0;entryPerimeter=0;endSize=14;" edge="1" parent="1" source="JVJf6kWSoOx6hXw5DYbl-19" target="JVJf6kWSoOx6hXw5DYbl-1">
          <mxGeometry width="50" height="50" relative="1" as="geometry">
            <mxPoint x="560" y="610" as="sourcePoint" />
            <mxPoint x="640" y="400" as="targetPoint" />
          </mxGeometry>
        </mxCell>
        <mxCell id="JVJf6kWSoOx6hXw5DYbl-31" value="&lt;div&gt;File&amp;nbsp;&lt;/div&gt;&lt;div&gt;Storages&lt;br&gt;&lt;/div&gt;&lt;div&gt;NAS / Network drive&amp;nbsp;&lt;/div&gt;&lt;div&gt;/ Local drive&lt;br&gt;&lt;/div&gt;" style="shape=dataStorage;whiteSpace=wrap;html=1;fixedSize=1;fillColor=#ffff88;strokeColor=#36393d;" vertex="1" parent="1">
          <mxGeometry x="345" y="320" width="160" height="80" as="geometry" />
        </mxCell>
        <mxCell id="JVJf6kWSoOx6hXw5DYbl-33" value="" style="endArrow=classic;html=1;rounded=0;entryX=0.5;entryY=1;entryDx=0;entryDy=0;endSize=16;" edge="1" parent="1" source="JVJf6kWSoOx6hXw5DYbl-31" target="JVJf6kWSoOx6hXw5DYbl-2">
          <mxGeometry width="50" height="50" relative="1" as="geometry">
            <mxPoint x="490" y="160" as="sourcePoint" />
            <mxPoint x="540" y="110" as="targetPoint" />
          </mxGeometry>
        </mxCell>
        <mxCell id="JVJf6kWSoOx6hXw5DYbl-34" value="&lt;div&gt;Watch folders&lt;/div&gt;&lt;div&gt;for changes&lt;br&gt;&lt;/div&gt;&lt;div&gt;&lt;br&gt;&lt;/div&gt;&lt;div&gt;(Read data)&lt;br&gt;&lt;/div&gt;" style="edgeLabel;html=1;align=center;verticalAlign=middle;resizable=0;points=[];" vertex="1" connectable="0" parent="JVJf6kWSoOx6hXw5DYbl-33">
          <mxGeometry x="-0.2311" y="3" relative="1" as="geometry">
            <mxPoint as="offset" />
          </mxGeometry>
        </mxCell>
        <mxCell id="JVJf6kWSoOx6hXw5DYbl-40" value="" style="endArrow=classic;html=1;rounded=0;exitX=0.5;exitY=1;exitDx=0;exitDy=0;endSize=14;entryX=0.5;entryY=0;entryDx=0;entryDy=0;" edge="1" parent="1" source="JVJf6kWSoOx6hXw5DYbl-31" target="JVJf6kWSoOx6hXw5DYbl-19">
          <mxGeometry width="50" height="50" relative="1" as="geometry">
            <mxPoint x="821.4000000000002" y="780" as="sourcePoint" />
            <mxPoint x="720" y="780" as="targetPoint" />
          </mxGeometry>
        </mxCell>
        <mxCell id="JVJf6kWSoOx6hXw5DYbl-41" value="&lt;div&gt;Read data&lt;/div&gt;&lt;div&gt;file&lt;/div&gt;" style="edgeLabel;html=1;align=center;verticalAlign=middle;resizable=0;points=[];" vertex="1" connectable="0" parent="JVJf6kWSoOx6hXw5DYbl-40">
          <mxGeometry x="-0.5418" y="-4" relative="1" as="geometry">
            <mxPoint x="7" y="-49" as="offset" />
          </mxGeometry>
        </mxCell>
        <mxCell id="JVJf6kWSoOx6hXw5DYbl-42" value="" style="endArrow=classic;html=1;rounded=0;exitX=0.5;exitY=1;exitDx=0;exitDy=0;endSize=14;entryX=0.5;entryY=0;entryDx=0;entryDy=0;" edge="1" parent="1" source="JVJf6kWSoOx6hXw5DYbl-31" target="JVJf6kWSoOx6hXw5DYbl-20">
          <mxGeometry width="50" height="50" relative="1" as="geometry">
            <mxPoint x="475" y="410" as="sourcePoint" />
            <mxPoint x="730" y="790" as="targetPoint" />
          </mxGeometry>
        </mxCell>
        <mxCell id="JVJf6kWSoOx6hXw5DYbl-43" value="&lt;div&gt;Read data&lt;/div&gt;&lt;div&gt;file&lt;/div&gt;" style="edgeLabel;html=1;align=center;verticalAlign=middle;resizable=0;points=[];" vertex="1" connectable="0" parent="JVJf6kWSoOx6hXw5DYbl-42">
          <mxGeometry x="-0.5418" y="-4" relative="1" as="geometry">
            <mxPoint x="21" y="58" as="offset" />
          </mxGeometry>
        </mxCell>
        <mxCell id="JVJf6kWSoOx6hXw5DYbl-44" value="" style="endArrow=classic;html=1;rounded=0;exitX=0.5;exitY=1;exitDx=0;exitDy=0;endSize=14;" edge="1" parent="1" source="JVJf6kWSoOx6hXw5DYbl-31" target="JVJf6kWSoOx6hXw5DYbl-21">
          <mxGeometry width="50" height="50" relative="1" as="geometry">
            <mxPoint x="485" y="420" as="sourcePoint" />
            <mxPoint x="740" y="800" as="targetPoint" />
          </mxGeometry>
        </mxCell>
        <mxCell id="JVJf6kWSoOx6hXw5DYbl-45" value="&lt;div&gt;Read data&lt;/div&gt;&lt;div&gt;file&lt;/div&gt;" style="edgeLabel;html=1;align=center;verticalAlign=middle;resizable=0;points=[];" vertex="1" connectable="0" parent="JVJf6kWSoOx6hXw5DYbl-44">
          <mxGeometry x="-0.5418" y="-4" relative="1" as="geometry">
            <mxPoint x="-24" y="74" as="offset" />
          </mxGeometry>
        </mxCell>
        <mxCell id="JVJf6kWSoOx6hXw5DYbl-46" value="&lt;div align=&quot;left&quot;&gt;1. Write Info&lt;/div&gt;&lt;div&gt;2. Manage File Status&lt;br&gt;&lt;/div&gt;" style="edgeLabel;html=1;align=center;verticalAlign=middle;resizable=0;points=[];" vertex="1" connectable="0" parent="1">
          <mxGeometry x="639.995390840156" y="550.0036867704287" as="geometry" />
        </mxCell>
        <mxCell id="JVJf6kWSoOx6hXw5DYbl-47" value="&lt;div align=&quot;left&quot;&gt;1. Write Info&lt;/div&gt;&lt;div&gt;2. Manage File Status&lt;br&gt;&lt;/div&gt;" style="edgeLabel;html=1;align=center;verticalAlign=middle;resizable=0;points=[];" vertex="1" connectable="0" parent="1">
          <mxGeometry x="759.995390840156" y="560.0036867704287" as="geometry">
            <mxPoint x="-1" y="-97" as="offset" />
          </mxGeometry>
        </mxCell>
        <mxCell id="JVJf6kWSoOx6hXw5DYbl-49" value="&lt;div style=&quot;font-size: 41px;&quot;&gt;&lt;font style=&quot;font-size: 64px;&quot;&gt;Architectural view&lt;/font&gt;&lt;/div&gt;" style="text;html=1;strokeColor=none;fillColor=none;align=center;verticalAlign=middle;whiteSpace=wrap;rounded=0;" vertex="1" parent="1">
          <mxGeometry x="120" y="-120" width="680" height="90" as="geometry" />
        </mxCell>
        <mxCell id="JVJf6kWSoOx6hXw5DYbl-50" value="&lt;div&gt;App: Observer&lt;/div&gt;&lt;div&gt;(WorkerService)&lt;/div&gt;&lt;div&gt;.NET 6&lt;/div&gt;&lt;div&gt;INSTANCE 2&lt;br&gt;&lt;/div&gt;" style="shape=process;whiteSpace=wrap;html=1;backgroundOutline=1;fillColor=#dae8fc;strokeColor=#6c8ebf;" vertex="1" parent="1">
          <mxGeometry x="335" y="80" width="120" height="60" as="geometry" />
        </mxCell>
        <mxCell id="JVJf6kWSoOx6hXw5DYbl-51" value="&lt;div&gt;App: Observer&lt;/div&gt;&lt;div&gt;(WorkerService)&lt;/div&gt;&lt;div&gt;.NET 6&lt;/div&gt;&lt;div&gt;INSTANCE &quot;N&quot;&lt;br&gt;&lt;/div&gt;" style="shape=process;whiteSpace=wrap;html=1;backgroundOutline=1;fillColor=#dae8fc;strokeColor=#6c8ebf;" vertex="1" parent="1">
          <mxGeometry x="365" y="60" width="120" height="60" as="geometry" />
        </mxCell>
        <mxCell id="JVJf6kWSoOx6hXw5DYbl-54" value="" style="endArrow=classic;html=1;rounded=0;exitX=0;exitY=0.708;exitDx=0;exitDy=0;entryX=1;entryY=0;entryDx=0;entryDy=52.5;entryPerimeter=0;endSize=16;exitPerimeter=0;" edge="1" parent="1" source="JVJf6kWSoOx6hXw5DYbl-53" target="JVJf6kWSoOx6hXw5DYbl-1">
          <mxGeometry width="50" height="50" relative="1" as="geometry">
            <mxPoint x="810" y="490" as="sourcePoint" />
            <mxPoint x="860" y="440" as="targetPoint" />
          </mxGeometry>
        </mxCell>
        <mxCell id="JVJf6kWSoOx6hXw5DYbl-55" value="Read File Status&lt;br&gt;(Failed or with Errors)" style="edgeLabel;html=1;align=center;verticalAlign=middle;resizable=0;points=[];" vertex="1" connectable="0" parent="JVJf6kWSoOx6hXw5DYbl-54">
          <mxGeometry x="0.0456" y="1" relative="1" as="geometry">
            <mxPoint x="1" y="-43" as="offset" />
          </mxGeometry>
        </mxCell>
        <mxCell id="JVJf6kWSoOx6hXw5DYbl-56" value="" style="endArrow=classic;html=1;rounded=0;entryX=-0.011;entryY=0.356;entryDx=0;entryDy=0;entryPerimeter=0;endSize=16;exitX=1.017;exitY=0.419;exitDx=0;exitDy=0;exitPerimeter=0;" edge="1" parent="1" source="JVJf6kWSoOx6hXw5DYbl-1" target="JVJf6kWSoOx6hXw5DYbl-53">
          <mxGeometry width="50" height="50" relative="1" as="geometry">
            <mxPoint x="710" y="350" as="sourcePoint" />
            <mxPoint x="840" y="280" as="targetPoint" />
          </mxGeometry>
        </mxCell>
        <mxCell id="JVJf6kWSoOx6hXw5DYbl-57" value="&lt;div&gt;Perform Data Cleanup in DB for &lt;br&gt;&lt;/div&gt;&lt;div&gt;Failed Files&lt;br&gt;&lt;/div&gt;" style="edgeLabel;html=1;align=center;verticalAlign=middle;resizable=0;points=[];" vertex="1" connectable="0" parent="1">
          <mxGeometry x="992.0025697243846" y="188.0013603787222" as="geometry">
            <mxPoint x="-77" y="10" as="offset" />
          </mxGeometry>
        </mxCell>
        <mxCell id="JVJf6kWSoOx6hXw5DYbl-64" value="" style="endArrow=classic;startArrow=classic;html=1;rounded=0;exitX=1;exitY=1;exitDx=0;exitDy=-15;exitPerimeter=0;entryX=0;entryY=0.25;entryDx=0;entryDy=0;endSize=16;startSize=16;" edge="1" parent="1" source="JVJf6kWSoOx6hXw5DYbl-1" target="JVJf6kWSoOx6hXw5DYbl-62">
          <mxGeometry width="50" height="50" relative="1" as="geometry">
            <mxPoint x="790" y="510" as="sourcePoint" />
            <mxPoint x="840" y="460" as="targetPoint" />
          </mxGeometry>
        </mxCell>
        <mxCell id="JVJf6kWSoOx6hXw5DYbl-65" value="CRUD" style="edgeLabel;html=1;align=center;verticalAlign=middle;resizable=0;points=[];" vertex="1" connectable="0" parent="JVJf6kWSoOx6hXw5DYbl-64">
          <mxGeometry x="-0.3106" y="-2" relative="1" as="geometry">
            <mxPoint x="12" y="-1" as="offset" />
          </mxGeometry>
        </mxCell>
        <mxCell id="JVJf6kWSoOx6hXw5DYbl-66" value="" style="endArrow=classic;html=1;rounded=0;exitX=0.893;exitY=0.496;exitDx=0;exitDy=0;exitPerimeter=0;entryX=0;entryY=0.833;entryDx=0;entryDy=0;entryPerimeter=0;endSize=16;" edge="1" parent="1" source="JVJf6kWSoOx6hXw5DYbl-31" target="JVJf6kWSoOx6hXw5DYbl-62">
          <mxGeometry width="50" height="50" relative="1" as="geometry">
            <mxPoint x="480" y="370" as="sourcePoint" />
            <mxPoint x="910" y="520" as="targetPoint" />
          </mxGeometry>
        </mxCell>
        <mxCell id="JVJf6kWSoOx6hXw5DYbl-68" value="&lt;div&gt;Read data&lt;/div&gt;&lt;div&gt;file for&amp;nbsp;&lt;/div&gt;&lt;div&gt;debug purpose&lt;br&gt;&lt;/div&gt;" style="edgeLabel;html=1;align=center;verticalAlign=middle;resizable=0;points=[];" vertex="1" connectable="0" parent="1">
          <mxGeometry x="920.0019091851206" y="380.00494207888346" as="geometry">
            <mxPoint x="-6" y="6" as="offset" />
          </mxGeometry>
        </mxCell>
        <mxCell id="JVJf6kWSoOx6hXw5DYbl-69" value="Does Not Covered by Test Solution" style="swimlane;whiteSpace=wrap;html=1;" vertex="1" parent="1">
          <mxGeometry x="990" y="-10" width="440" height="440" as="geometry" />
        </mxCell>
        <mxCell id="JVJf6kWSoOx6hXw5DYbl-53" value="&lt;div&gt;App: ErrorObserver&lt;/div&gt;&lt;div&gt;(WorkerService)&lt;br&gt;&lt;/div&gt;&lt;div&gt;(Execute each 1 or X minute)&lt;br&gt;&lt;/div&gt;" style="shape=process;whiteSpace=wrap;html=1;backgroundOutline=1;" vertex="1" parent="JVJf6kWSoOx6hXw5DYbl-69">
          <mxGeometry x="90" y="70" width="140" height="60" as="geometry" />
        </mxCell>
        <mxCell id="JVJf6kWSoOx6hXw5DYbl-58" value="Operator" style="shape=umlActor;verticalLabelPosition=bottom;verticalAlign=top;html=1;outlineConnect=0;" vertex="1" parent="JVJf6kWSoOx6hXw5DYbl-69">
          <mxGeometry x="340" y="190" width="30" height="60" as="geometry" />
        </mxCell>
        <mxCell id="JVJf6kWSoOx6hXw5DYbl-59" value="" style="endArrow=classic;html=1;rounded=0;endSize=16;exitX=1;exitY=0.5;exitDx=0;exitDy=0;" edge="1" parent="JVJf6kWSoOx6hXw5DYbl-69" source="JVJf6kWSoOx6hXw5DYbl-53" target="JVJf6kWSoOx6hXw5DYbl-58">
          <mxGeometry width="50" height="50" relative="1" as="geometry">
            <mxPoint x="214" y="180" as="sourcePoint" />
            <mxPoint x="344" y="180" as="targetPoint" />
          </mxGeometry>
        </mxCell>
        <mxCell id="JVJf6kWSoOx6hXw5DYbl-61" value="&lt;div&gt;Inform operator &lt;br&gt;&lt;/div&gt;&lt;div&gt;about errors&amp;nbsp;&lt;/div&gt;&lt;div&gt;(Email / SMS other Push)&lt;br&gt;&lt;/div&gt;" style="edgeLabel;html=1;align=center;verticalAlign=middle;resizable=0;points=[];" vertex="1" connectable="0" parent="JVJf6kWSoOx6hXw5DYbl-59">
          <mxGeometry x="0.0692" y="-2" relative="1" as="geometry">
            <mxPoint x="10" y="-45" as="offset" />
          </mxGeometry>
        </mxCell>
        <mxCell id="JVJf6kWSoOx6hXw5DYbl-62" value="&lt;div&gt;App: Wpf / Web / Maui&amp;nbsp;&lt;/div&gt;&lt;div&gt;&lt;br&gt;&lt;/div&gt;&lt;div&gt;App to analyze and manage data Files with mistakes&lt;/div&gt;" style="shape=process;whiteSpace=wrap;html=1;backgroundOutline=1;" vertex="1" parent="JVJf6kWSoOx6hXw5DYbl-69">
          <mxGeometry x="90" y="286" width="140" height="100" as="geometry" />
        </mxCell>
        <mxCell id="JVJf6kWSoOx6hXw5DYbl-63" value="&amp;nbsp;" style="endArrow=classic;html=1;rounded=0;entryX=1;entryY=0.5;entryDx=0;entryDy=0;endSize=16;" edge="1" parent="JVJf6kWSoOx6hXw5DYbl-69" source="JVJf6kWSoOx6hXw5DYbl-58" target="JVJf6kWSoOx6hXw5DYbl-62">
          <mxGeometry width="50" height="50" relative="1" as="geometry">
            <mxPoint x="-130" y="260" as="sourcePoint" />
            <mxPoint x="-80" y="210" as="targetPoint" />
          </mxGeometry>
        </mxCell>
        <mxCell id="JVJf6kWSoOx6hXw5DYbl-71" value="&lt;div&gt;Act according&lt;/div&gt;&lt;div&gt;to Operational or Data Incident&lt;/div&gt;&lt;div&gt;instruction&lt;br&gt;&lt;/div&gt;" style="edgeLabel;html=1;align=center;verticalAlign=middle;resizable=0;points=[];" vertex="1" connectable="0" parent="JVJf6kWSoOx6hXw5DYbl-63">
          <mxGeometry x="-0.1319" relative="1" as="geometry">
            <mxPoint x="27" y="45" as="offset" />
          </mxGeometry>
        </mxCell>
      </root>
    </mxGraphModel>
  </diagram>
</mxfile>
